<?xml version="1.0" standalone="no"?>
<!DOCTYPE svg PUBLIC "-//W3C//DTD SVG 20010904//EN"
 "http://www.w3.org/TR/2001/REC-SVG-20010904/DTD/svg10.dtd">
<svg version="1.0" xmlns="http://www.w3.org/2000/svg"
 width="581.000000pt" height="430.000000pt" viewBox="0 0 581.000000 430.000000"
 preserveAspectRatio="xMidYMid meet">

<g transform="translate(0.000000,430.000000) scale(0.100000,-0.100000)"
fill="#000000" stroke="none">
<path d="M922 3175 c-231 -50 -427 -176 -572 -365 -160 -210 -230 -424 -230
-703 0 -112 5 -170 21 -245 46 -210 138 -388 281 -537 187 -198 414 -298 678
-298 249 -1 476 97 663 286 121 121 209 267 260 432 47 150 52 183 51 365 0
157 -3 186 -27 278 -15 56 -27 107 -27 112 0 6 83 11 198 12 189 3 197 4 197
23 0 19 -8 20 -210 23 l-211 2 -36 73 c-138 277 -396 481 -686 542 -89 18
-264 18 -350 0z m173 -47 c3 -13 4 -142 3 -288 l-3 -265 -417 -3 c-230 -1
-418 1 -418 5 0 13 71 136 109 187 57 77 166 181 244 232 146 97 268 137 459
153 11 0 20 -8 23 -21z m203 -4 c86 -21 237 -92 316 -148 112 -80 236 -227
305 -364 16 -32 18 -44 9 -47 -7 -3 -110 -6 -228 -7 -214 -3 -215 -3 -218 -25
l-3 -23 240 0 c276 0 247 11 280 -111 152 -574 -168 -1173 -698 -1305 -53 -13
-108 -24 -123 -24 l-28 0 0 1035 0 1035 40 0 c23 0 71 -7 108 -16z m-203
-1329 l0 -720 -42 -3 c-23 -2 -76 4 -117 13 -176 36 -325 116 -456 245 -154
150 -241 309 -297 542 -27 111 -25 384 4 494 12 45 29 98 37 118 l15 36 428
-2 428 -3 0 -720z"/>
<path d="M1900 1310 c0 -27 3 -30 30 -30 l30 0 0 -70 0 -70 30 0 30 0 0 70 0
70 45 0 c25 0 45 -2 45 -3 0 -2 -9 -30 -20 -62 -11 -32 -20 -62 -20 -67 0 -15
58 -9 64 7 3 9 18 15 40 15 21 0 36 -6 40 -15 3 -9 18 -15 35 -15 l30 0 -33
98 -33 97 -156 3 -157 3 0 -31z m289 -87 c1 -7 -8 -13 -19 -13 -23 0 -23 0 -9
37 10 26 12 27 19 8 5 -11 9 -26 9 -32z"/>
<path d="M2270 1310 c0 -16 5 -30 10 -30 6 0 10 -30 10 -70 l0 -70 95 0 95 0
0 30 0 30 -60 0 -60 0 0 70 0 70 -45 0 c-43 0 -45 -1 -45 -30z"/>
<path d="M2470 1310 c0 -16 5 -30 10 -30 6 0 10 -30 10 -70 l0 -70 30 0 c27 0
30 3 30 32 l0 32 33 -32 c23 -22 43 -32 65 -32 29 0 32 3 32 29 0 25 -5 30
-26 33 -47 5 -51 29 -16 87 l32 51 -34 0 c-29 0 -38 -6 -58 -37 l-23 -38 -3
38 c-3 36 -4 37 -43 37 -37 0 -39 -2 -39 -30z"/>
<path d="M2790 1311 c0 -23 5 -30 22 -33 17 -2 26 -17 43 -68 20 -60 24 -65
52 -68 27 -3 32 1 43 30 l12 33 14 -32 c11 -26 20 -33 43 -33 27 0 30 5 56 79
24 67 30 77 41 66 9 -9 14 -37 14 -79 l0 -66 30 0 30 0 0 70 0 70 35 0 35 0 0
-70 0 -70 30 0 c29 0 29 0 32 68 l3 67 38 3 37 3 0 -70 0 -71 30 0 c28 0 30 3
30 35 0 32 2 35 30 35 28 0 30 -3 30 -35 0 -32 2 -35 30 -35 l30 0 0 100 0
100 -30 0 c-28 0 -30 -2 -30 -40 0 -38 -2 -40 -30 -40 -28 0 -30 2 -30 40 l0
40 -203 0 -204 0 -13 -42 -13 -43 -13 30 c-7 17 -13 36 -14 43 0 7 -14 12 -33
12 -31 0 -35 -4 -47 -42 l-13 -43 -13 30 c-7 17 -13 36 -14 43 0 8 -16 12 -45
12 -43 0 -45 -1 -45 -29z"/>
<path d="M3757 1322 c-27 -30 -21 -67 16 -96 l32 -26 -57 0 c-58 0 -58 0 -58
-30 l0 -30 73 0 c80 0 102 10 112 52 6 23 1 33 -26 58 l-33 30 57 0 57 0 0
-70 0 -70 30 0 30 0 0 70 0 70 35 0 35 0 0 -70 0 -70 35 0 c33 0 35 2 35 32
l0 32 33 -32 c21 -20 43 -32 60 -32 23 0 27 4 27 29 0 21 -6 30 -21 34 l-20 6
20 20 c12 12 21 28 21 36 0 10 10 15 30 15 36 0 36 -1 10 -75 -11 -32 -20 -60
-20 -62 0 -11 59 0 64 12 7 20 66 19 80 -1 7 -9 23 -14 39 -12 l26 3 -33 95
-33 95 -86 3 c-76 2 -87 1 -87 -14 0 -16 -1 -16 -18 -1 -16 15 -48 17 -234 17
-195 0 -216 -2 -231 -18z m431 -49 c2 -9 -7 -13 -27 -13 -21 0 -31 5 -31 16 0
19 51 16 58 -3z m201 -50 c1 -7 -8 -13 -18 -13 -18 0 -19 3 -9 32 10 28 12 30
19 12 4 -10 8 -25 8 -31z"/>
<path d="M4470 1310 c0 -16 5 -30 10 -30 6 0 10 -30 10 -70 l0 -70 35 0 35 0
0 50 c0 28 4 50 9 50 17 0 41 -43 41 -72 0 -25 3 -28 35 -28 l35 0 0 100 0
100 -30 0 c-23 0 -30 -4 -30 -20 0 -11 -1 -20 -3 -20 -1 0 -20 9 -42 20 -22
11 -54 20 -72 20 -30 0 -33 -3 -33 -30z"/>
<path d="M4741 1326 c-47 -26 -63 -84 -37 -135 19 -35 55 -51 116 -51 l50 0 0
55 c0 54 0 55 -30 55 -25 0 -30 -4 -30 -25 0 -29 -21 -33 -44 -9 -34 34 -4 64
65 64 l49 0 0 -70 0 -70 95 0 95 0 0 30 c0 30 0 30 -62 32 -57 1 -58 2 -15 5
42 4 47 7 47 29 0 22 -4 24 -45 24 -25 0 -45 5 -45 10 0 6 28 10 65 10 l65 0
0 -70 0 -70 30 0 c27 0 30 3 30 31 l0 31 35 -31 c35 -30 38 -31 134 -31 82 0
101 3 114 18 25 27 21 67 -8 90 -34 27 -32 32 15 32 38 0 40 2 40 30 l0 31
-66 -3 c-58 -3 -69 -6 -86 -29 -16 -22 -17 -29 -7 -52 7 -15 20 -29 31 -32 38
-13 15 -25 -47 -25 -36 0 -65 3 -65 7 0 3 7 15 16 24 24 26 21 69 -6 91 -20
16 -45 18 -249 18 -168 -1 -232 -4 -250 -14z m459 -51 c0 -10 -10 -15 -30 -15
-29 0 -38 9 -23 23 13 13 53 7 53 -8z"/>
</g>
</svg>
